<?xml version="1.0" encoding="utf-8"?>
<!-- Generator: Adobe Illustrator 24.1.2, SVG Export Plug-In . SVG Version: 6.00 Build 0)  -->
<svg version="1.1" id="图层_1" xmlns="http://www.w3.org/2000/svg" xmlns:xlink="http://www.w3.org/1999/xlink" x="0px" y="0px"
	 viewBox="0 0 2560 480" style="enable-background:new 0 0 2560 480;" xml:space="preserve">
<style type="text/css">
	.st0{fill:#879DAB;}
	.st1{fill:#326273;}
</style>
<g id="Symbol">
	<g>
		<path class="st0" d="M220.4,478.5C179,474.5,143,462,109.5,440c-23-15.1-44.1-35.3-60.8-57.8c-20.7-28-35.6-63.8-41.9-100.2
			c-4.8-27.8-4-62.7,2.2-90.8c11.6-53.4,41.4-101,84.8-135.8c33.8-27,76.6-44.2,123-49.4c4.3-0.4,15.1-0.9,24-0.9
			c21.2,0,37.7,2,56.7,6.5c67.6,16.5,126,63.1,155.9,124.6c22.7,46.7,30.1,100,20.9,150.4c-6.8,37.2-23.5,73.8-47.5,104.3
			c-8.3,10.5-28.4,30.3-38.9,38.5c-34.2,26.4-71.8,42-116.2,48.2C262.2,478.7,229.8,479.4,220.4,478.5z M271.9,462
			c5.8-0.8,14.2-2.4,18.8-3.5c9.5-2.2,25.9-7,25.9-7.7c0-0.3-25.6-14.1-56.8-30.7L203,389.9l-3.1,1.6c-1.7,1-4.4,2-5.9,2.2l-3,0.4
			l-11.1,27.8c-6.1,15.3-11.3,28.3-11.5,28.9c-0.8,2.2,24.4,8.9,42.8,11.5c12.7,1.8,13,1.8,32.3,1.6
			C257.1,463.7,263.9,463.3,271.9,462z M175,421.1l11.8-29l-1.8-2.1c-1-1.2-2.3-3.3-2.7-4.8c-0.4-1.4-1.3-2.6-1.7-2.6
			c-0.5-0.1-28.7-4-62.6-8.9c-34-4.8-61.7-8.6-61.7-8.3c0,0.2,3.2,4.7,7.1,9.9c20.2,26.9,43.8,47.3,73.5,63.3
			c6.8,3.7,24.1,11.5,25.6,11.6C162.9,450,168.5,437,175,421.1z M326.9,447.1l2.8-1.5l9.7-33l9.6-33l-2.6-2.9
			c-1.5-1.7-2.8-3.3-2.9-3.8c-0.2-0.6-21.8,1-69.7,4.9c-58.1,4.9-69.4,6-69.6,6.9c-0.1,0.8,16.7,10,58.9,32.4
			c32.5,17.1,59.5,31.2,60.1,31.3C323.6,448.4,325.4,447.8,326.9,447.1z M342.2,440.2c31.5-15.8,63.8-45,85.3-77
			c2.5-3.8,4.5-7.1,4.3-7.4c-0.3-0.3-60.4,11.8-64.4,12.9c-0.8,0.2-1.4,0.9-1.4,1.6c0,4.3-5.8,10-10.3,10c-1.4,0-2.5,0.2-2.5,0.4
			c0,0.2-3.9,13.8-8.7,30.2c-4.7,16.4-8.8,30.4-9,31.1c-0.2,0.7-0.2,1.3,0.1,1.3C335.9,443.3,338.8,441.8,342.2,440.2z M273.8,373.1
			c37.1-3.1,67.8-5.6,68.4-5.6c0.5-0.1,1.8-1.7,2.7-3.8l1.8-3.8L334,339.8l-12.6-20.3h-3.3c-1.8,0-4.7-0.7-6.5-1.6l-3.1-1.6
			l-50.9,30.1c-28,16.7-51.6,30.7-52.4,31.2c-1.4,1-1.4,1-0.1,1C205.8,378.8,236.7,376.2,273.8,373.1z M185.6,374.5l3.6-3.6
			l-2.3-16.9c-1.4-9.3-4.5-31.3-7.1-48.9l-4.6-32.1h-3.3c-1.8,0-3.8-0.3-4.6-0.8c-1.2-0.6-11,6.5-58.3,42.5
			c-31.3,23.8-57.1,43.4-57.2,43.5c-0.2,0.2,0,0.7,0.4,1c0.6,0.6,122.5,18.5,127.5,18.7C181.6,378,182.9,377.3,185.6,374.5z
			 M254.3,343.4l51.7-30.8v-2.9V307l-11-3.4c-6.1-2-34-11.1-61.9-20.3l-50.7-16.7l-1.7,2.3l-1.6,2.2l7.4,50.2
			c6.1,41.8,7.6,50.2,8.6,50.2c0.6,0,2.3,0.7,3.8,1.4c1.4,0.8,2.8,1.5,3.2,1.5C202.3,374.3,225.8,360.4,254.3,343.4z M401.2,356.6
			c18.8-4,34.3-7.3,34.3-7.4c0.7-0.7,9.2-18.5,11.5-24c8.5-20.4,14.2-44.9,15.7-67.6l0.7-9.7L446,227.4
			c-16.8-19.9-17.4-20.5-19.8-20.3l-2.6,0.2l-31.3,76l-31.4,76l2,2.3c1.1,1.2,2.5,2.2,3.1,2.2S382.4,360.5,401.2,356.6z
			 M356.7,356.7c0.5-0.4,60.3-146.2,60.1-146.4c-0.1-0.1-20.5,20.4-45.4,45.7l-45,45.9l1,2.4c1.5,3.4,1.3,6.1-0.7,9.6l-1.7,3.1
			l12.8,20.3l12.8,20.4l3-0.5C355.3,357,356.7,356.8,356.7,356.7z M106.1,310.9c30.2-23,55-42.1,55.3-42.3c2.3-2-2.9-2.3-71-4.9
			c-38.7-1.4-70.6-2.5-70.8-2.3c-0.1,0.1,0.5,5.8,1.4,12.4c3.7,26,12.1,52,24.3,74c3.3,6.1,3.9,6.8,5,5.9
			C50.9,353.2,76.1,333.9,106.1,310.9z M309.4,300.2c1.3-1.2,2.9-2.4,3.6-2.9c1.1-0.7,1-4.8-1.7-52.1c-1.6-28.3-3-51.5-3-51.5
			c0-0.1-0.6-0.2-1.4-0.2c-0.8,0-2.3-0.7-3.4-1.6l-2-1.6l-25.6,15c-14.1,8.3-40.7,23.8-59,34.5c-18.4,10.8-33.4,20-33.4,20.5
			c0,0.6,23.4,8.7,61.5,21.4c33.8,11.3,61.7,20.4,61.8,20.5C306.8,302.3,308,301.4,309.4,300.2z M353.6,268.4
			c16.5-16.6,37.5-37.9,46.7-47.2l16.7-16.9l-1.3-2.3l-1.4-2.3l-43.9-6.1c-24.1-3.4-45.1-6.4-46.6-6.6c-2.3-0.3-2.8-0.1-4,2
			c-0.8,1.3-2.6,2.9-4,3.5c-1.4,0.7-2.6,1.6-2.6,2c-0.1,0.5,1.2,23.7,2.8,51.6l2.8,50.8l1.9,0.7c1.1,0.4,2,0.8,2.3,0.8
			C323.5,298.5,337.1,284.9,353.6,268.4z M159.6,259.8c-0.1-0.7-16.8-13.4-37.1-28.1l-36.9-26.9l-2.8,1.2c-1.9,0.8-4,1.1-6.3,0.8
			c-1.9-0.2-4.1-0.5-5-0.6c-1.2-0.1-8,5.7-27.2,23.7c-15.3,14.4-25.6,24.5-25.6,25.4c0,1.2,0.8,1.3,6.2,1.4c3.4,0,32.3,1,64.3,2.1
			C163.1,261.4,159.9,261.3,159.6,259.8z M164,253.2l1.6-1.7l-7.8-35c-4.3-19.2-7.9-35.1-7.9-35.3c0-0.2-1-0.5-2.4-0.8
			c-1.3-0.2-3.5-1.4-4.9-2.4l-2.6-1.9l-25.4,9.1l-25.4,9.2l-0.5,3.4c-0.4,2.8-0.2,3.5,0.9,4.4c0.8,0.5,17.2,12.7,36.6,26.9
			c19.3,14.3,35.4,26,35.6,26C162.2,255,163.1,254.2,164,253.2z M240,221c31.6-18.4,57.7-33.9,58.1-34.5c0.4-0.6,0.5-1.4,0.2-1.6
			c-0.2-0.3-31.3-3.1-69-6.3l-68.5-5.8l-1.2,1.9c-0.7,1.1-2.2,2.7-3.4,3.5l-2.1,1.6l7.8,34.9l7.9,34.9l3.2,0.5
			c2,0.3,4.1,1.3,5.6,2.6c1.4,1.2,2.8,2.1,3.1,1.9C182.3,254.6,208.4,239.4,240,221z M67,200.3c-0.5-5.3-0.3-7.4,0.8-9.5l1.1-2.3
			L53.4,170L38,151.4l-2,4.4c-10.5,23.6-17.1,55-17.2,81.4v10.4L43,224.9C63.2,205.8,67.1,201.8,67,200.3z M462.8,227.7
			c-1.3-20.3-4.4-36.7-10.1-54.1c-2.9-8.8-10.1-26.3-10.5-25.7c-0.1,0.1-2.6,8.8-5.6,19.2l-5.4,19l2,1.9c3.8,3.9,4.4,10.1,1.1,14.2
			c-1.6,1.9-1.6,1.9-0.1,3.6c0.8,0.9,7.6,9,15.2,18c7.5,9,13.8,16.2,13.9,16.1S463.1,234.2,462.8,227.7z M414.6,191.2l1.6-3.1
			L382,129.5c-18.8-32.2-34.6-59-35-59.6c-0.7-0.7-1.4-0.8-3.1-0.2l-2.2,0.8l-13,50.7l-13,50.6l2.6,2.8c1.5,1.5,3,3.8,3.4,5l0.8,2.3
			l43.8,6.2c24.1,3.3,44.6,6.1,45.4,6.1C412.7,194.3,413.5,193.4,414.6,191.2z M113.5,180.3c22.6-8.2,24.5-9,24.5-10.6
			c0-0.9,0.5-2.9,1.1-4.4l1.1-2.7l-30.8-35.2c-16.9-19.4-31-35.1-31.1-34.9c-0.2,0.1,0.1,16.4,0.4,36.2c0.4,19.7,0.8,40.3,0.8,45.8
			v9.9l2.2,0.9c1.2,0.5,2.9,1.7,3.9,2.7c1,1,2.1,1.7,2.5,1.6C88.5,189.4,99.9,185.3,113.5,180.3z M74.7,149.3
			c-0.2-19.7-0.7-39.5-0.9-44.2c-0.6-10-0.2-10.1-9,1.5c-7,9.1-14.4,20.9-20.4,32.1l-4.6,8.6L56,166.7
			c13.6,16.2,16.4,19.1,17.6,18.8l1.7-0.4L74.7,149.3z M426.8,183.8c0.2-0.2,3.2-10,6.6-21.7l6.1-21.2l-4.6-8.1
			c-5.6-9.8-13.1-20.9-19.9-29.4c-10.5-13.2-38.6-39.6-44.6-41.9c-1-0.4-5.4-1-9.8-1.3l-7.9-0.5l-1.2,3l-1.2,3l34.6,59.7l34.6,59.7
			l3.4-0.4C424.9,184.5,426.6,184.1,426.8,183.8z M296.6,178.7c-0.4-0.4-27.1-14.4-59.2-31.3c-32.2-16.8-60.5-31.6-62.9-32.9
			c-3.9-2.1-4.4-2.2-5.3-1.1c-1.3,1.7-5.9,4.4-7.4,4.4c-1.4,0-1.2-1.1-5.1,22.5c-2.2,12.7-2.8,18.5-2.3,18.6c2,0.7,4.7,3.8,5.6,6.5
			c0.8,2.4,1.4,3.1,3.2,3.3c5,0.6,126.2,10.4,130,10.5C295.5,179.2,297,179,296.6,178.7z M303.4,174c0.8-0.8,2.9-1.9,4.7-2.3
			c2.8-0.8,3.3-1.2,3.9-3.6c6.8-26,25-96,25.3-96.9c0.2-0.8-0.5-1.7-2.2-2.7c-1.4-0.8-3.2-2.9-4-4.5l-1.4-3l-78.7,22.3
			c-64.4,18.3-78.8,22.6-78.8,23.6c0,0.9,17.9,10.6,64.5,34.9c35.5,18.5,64.7,33.7,64.9,33.7C301.8,175.5,302.6,174.8,303.4,174z
			 M147.7,158.3c1,0,1.6-0.7,1.9-2c0.8-3.5,6.4-37.3,6.4-38.1c0-0.4-1-1.4-2.2-2.2c-2.6-1.8-4.3-4.4-5-8.1c-0.3-1.7-1-2.9-1.8-3.2
			C136.4,101.6,82.5,87,81.8,87c-0.5,0-0.8,0.4-0.7,0.8c0.2,0.4,14.3,16.8,31.4,36.3c26.2,29.9,31.2,35.4,32.3,34.8
			C145.6,158.6,146.9,158.3,147.7,158.3z M250.9,78.4c55.6-15.6,79-22.5,79.5-23.4c0.5-0.7,1.8-2.4,3.1-3.9l2.3-2.6l-2.3-5.1
			c-2.6-5.8-1.9-5.3-15.4-10.4c-23.3-8.7-49-13.5-73.8-13.7c-7.3,0-13.3,0.1-13.6,0.3c-6.7,8-61.3,79-61.3,79.7c0,1.3,0.7,2,1.7,1.6
			C171.8,100.7,207.6,90.5,250.9,78.4z M152,98.2c2.3-2.6,6.1-3.8,10-3.3l3.5,0.5L194,58.8c15.6-20.1,28.9-37.2,29.4-38
			c1-1.3,0.8-1.4-3.4-0.9c-48,4.9-95,26-129.9,58.2l-4.6,4.3l3.2,0.9c20.3,5.5,60.4,16.3,61.1,16.3C150.2,99.8,151.1,99,152,98.2z
			 M363,56c0-0.4-16.7-10.3-20.8-12.4c-1.8-1-3.5-1.5-3.7-1.3c-0.1,0.2,0.2,1.4,0.8,2.7c0.9,1.6,2,2.5,4.4,3.1c2,0.5,4.2,2,6.1,3.9
			c2.6,2.8,3.3,3.1,7.9,3.5c2.7,0.3,5,0.6,5.2,0.7C362.9,56.2,363,56.1,363,56z"/>
	</g>
</g>
<g id="text" transform="translate(500,425) scale(0.100000,-0.100000)">
	<g id="The_minimum_viable">
		<path class="st0" d="M4425,3468c-8-36-135-818-135-834c0-9,10-14,29-14c22,0,30,6,34,23c3,12,27,168,53,347s50,328,53,332
			s67-142,141-323c74-182,141-333,148-336c8-3,19,1,26,8c11,12,228,469,299,629l20,45l51-360l51-360l33-3c17-2,32,1,32,5
			c0,12-119,803-126,836c-14,68-36,34-203-323c-91-193-168-347-172-343s-71,162-150,351c-111,263-148,342-161,342
			C4438,3490,4428,3480,4425,3468z"/>
		<path class="st0" d="M6520,3055v-435h30h30l2,362l3,361l318-366c175-202,325-367,333-367c12,0,14,63,14,435v435h-30h-30l-2-365
			l-3-365l-320,370c-176,203-326,370-332,370C6523,3490,6520,3396,6520,3055z"/>
		<path class="st0" d="M8645,3478c-2-7-35-202-73-433l-68-420l29-3c16-2,30-2,32,0s28,162,57,356c32,213,56,348,61,340
			c5-7,68-157,141-333c108-263,136-320,151-320c16,0,50,66,175,333c109,234,157,327,162,315c4-10,28-170,54-355l47-338h34
			c32,0,34,2,29,28c-6,28-126,827-126,837c0,3-8,5-19,5c-14,0-53-74-182-350c-90-192-166-350-169-350s-70,157-150,348
			c-104,246-151,348-163,350C8658,3490,8648,3486,8645,3478z"/>
		<path class="st0" d="M11316,3078c-37-227-70-423-73-435c-5-20-1-23,29-23h33l55,361c34,230,57,355,62,343c4-11,66-160,138-333
			c71-173,133-318,139-324c5-5,16-7,23-4s83,156,168,340s156,332,157,329c3-8,103-695,103-705c0-4,16-7,36-7c29,0,34,3,30,18
			c-3,9-32,202-66,427c-34,226-65,414-70,419s-15,6-22,3c-7-2-85-159-172-346c-88-188-162-344-166-346s-72,152-152,343
			c-116,276-150,348-165,350C11384,3491,11379,3464,11316,3078z"/>
		<path class="st0" d="M15417,3093c-92-219-173-415-182-435l-15-38h34h33l63,150l63,150h186h187l61-147l61-148l36-3c20-2,36-1,36,1
			s-79,193-176,423s-178,425-181,432c-3,6-13,12-23,12C15587,3490,15546,3401,15417,3093z M15686,3162c41-97,74-180,74-184
			c0-5-72-8-160-8s-160,4-160,9c0,4,34,90,75,190s75,187,75,194C15591,3383,15609,3346,15686,3162z"/>
		<path class="st0" d="M160,3450v-30h145h145v-400v-400h30h30v400v400h145h145v30v30H480H160V3450z"/>
		<path class="st0" d="M1310,3050v-430h30h30v215v215h290h290v-215v-215h30h30v430v430h-30h-30l-2-187l-3-188l-287-3l-288-2v190v190
			h-30h-30V3050z"/>
		<path class="st0" d="M2650,3050v-430h205h205v30v30h-175h-175v190v189l153,3l152,3v25v25l-152,3l-153,3v149v150h170h170v30v30
			h-200h-200V3050z"/>
		<path class="st0" d="M5820,3050v-430h30h30v430v430h-30h-30V3050z"/>
		<path class="st0" d="M7890,3050v-430h30h30v430v430h-30h-30V3050z"/>
		<path class="st0" d="M10020,3223c0-372,16-449,110-537c59-55,124-76,234-76c145,1,234,49,287,155c39,80,49,171,49,473v242h-35h-35
			v-293c0-231-3-304-15-344c-36-121-118-177-260-177c-121,1-191,40-236,131c-23,47-24,57-29,363l-5,315l-32,3l-33,3V3223z"/>
		<path class="st0" d="M13390,3476c0-2,83-197,183-433c143-333,188-429,203-431c16-2,46,61,202,425c100,235,182,432,182,436
			c0,5-14,7-32,5l-32-3l-157-373c-86-205-159-375-162-378c-2-3-7,5-10,18c-4,13-74,183-156,378l-150,355l-36,3
			C13406,3480,13390,3479,13390,3476z"/>
		<path class="st0" d="M14660,3050v-430h30h30v430v430h-30h-30V3050z"/>
		<path class="st0" d="M16480,3052v-429l123-7c205-11,305,21,354,113c28,54,32,155,7,204c-23,45-82,105-127,128l-38,20l45,50
			c54,60,70,103,64,178c-5,72-32,111-96,143c-41,20-64,23-189,26l-143,3V3052z M16767,3410c24-10,52-33,63-52c41-65,7-171-74-233
			c-35-26-38-27-126-20l-90,7v159v159h93C16702,3430,16736,3425,16767,3410z M16740,3034c106-31,170-97,177-182c5-60-19-106-76-147
			c-42-30-45-30-169-30h-127l-3,188l-2,187h73C16653,3050,16710,3043,16740,3034z"/>
		<path class="st0" d="M17560,3050v-430h225h225v30v30h-195h-195v400v400h-30h-30V3050z"/>
		<path class="st0" d="M18520,3050v-430h205h205v30v30h-175h-175v190v190h150h150v30v30h-150h-150v150v150l168,2l167,3l3,28l3,27
			h-200h-201V3050z"/>
	</g>
	<g id="LIZHE_x27_SBOLOG">
		<path class="st1" d="M6030,2108c-229-18-392-85-535-220c-205-191-305-445-305-775c0-262,56-474,170-644c68-101,193-217,286-265
			c167-88,272-108,514-101c190,5,283,27,425,100c117,60,262,208,327,332c81,158,116,303,125,520c24,604-300,1015-832,1053
			C6156,2112,6077,2112,6030,2108z M6273,1894c115-26,192-69,277-154c84-84,130-156,166-258c119-344,62-776-131-990
			c-63-69-143-127-220-159c-146-61-390-56-521,10c-120,61-230,170-289,288c-121,237-126,674-12,912c62,130,162,238,280,303
			C5931,1905,6130,1926,6273,1894z"/>
		<path class="st1" d="M531,2086c-59-20-96-57-115-120c-15-46-16-139-14-918c3-830,4-867,22-887c33-36,81-46,132-26
			c24,9,49,25,54,35c6,12,10,317,10,836c0,708,2,816,14,804c8-8,58-112,112-230c410-908,599-1320,620-1348c33-42,73-62,126-62
			c49,0,98,26,124,64c14,23,149,316,590,1288l139,308l5-818c4-615,8-822,17-838c12-22,70-54,95-54c7,0,32,9,55,19c35,16,44,26,53,60
			c7,28,10,300,8,893l-3,853l-22,41c-59,110-192,147-292,81c-46-31-79-93-274-527c-360-800-481-1066-492-1078c-9-10-77,133-320,680
			c-169,381-326,729-349,773c-45,88-85,139-126,160C658,2097,581,2101,531,2086z"/>
		<path class="st1" d="M9697,2082c-67-45-62,26-64-967c-2-703,0-905,10-924c6-13,25-34,40-45c28-20,39-21,375-21c322,0,355,2,460,23
			c226,46,389,127,517,257c155,158,232,365,242,655c9,228-23,404-99,555c-125,248-315,385-628,452c-107,24-139,26-470,30
			C9743,2101,9724,2100,9697,2082z M10401,1885c187-28,293-77,406-190c66-66,90-98,123-166c77-162,104-349,81-564
			c-33-298-168-502-394-592c-118-46-177-54-464-60l-273-6v797v796h213C10226,1900,10340,1895,10401,1885z"/>
		<path class="st1" d="M13971,2083c-18-9-42-31-52-47c-18-30-19-70-19-925c0-879,0-894,20-926c42-67,27-66,650-63l562,3l24,28
			c35,41,34,109-2,142l-27,25h-493h-494v360v359l449,3c437,3,450,4,477,24c37,27,47,67,29,111c-26,62-33,63-520,63h-435v325v325h458
			c415,0,460,2,492,18c65,32,79,101,31,154l-29,33l-544,2C14057,2100,14002,2098,13971,2083z"/>
		<path class="st1" d="M17875,2085c-55-20-72-45-80-118c-3-34-5-442-3-907c3-817,4-846,22-877c38-63,41-63,612-63
			c577,0,572-1,600,66c17,41,13,70-15,105l-19,24l-474,5l-473,5l-5,850c-6,953-1,893-77,914C17917,2102,17924,2102,17875,2085z"/>
	</g>
</g>
</svg>
